<?xml version="1.0" encoding="utf-8"?>
<!-- Generator: Adobe Illustrator 25.0.0, SVG Export Plug-In . SVG Version: 6.00 Build 0)  -->
<svg version="1.1" id="Ebene_1" xmlns="http://www.w3.org/2000/svg" xmlns:xlink="http://www.w3.org/1999/xlink" x="0px" y="0px"
	 viewBox="0 0 178.6 49.3" style="enable-background:new 0 0 178.6 49.3;" xml:space="preserve">
<style type="text/css">
	.st0{fill:#FFFFFF;}
</style>
<path class="st0" d="M137.4,24.6c0,5-4.1,9.1-9.1,9.1c-5,0-9.1-4.1-9.1-9.1s4.1-9.1,9.1-9.1c0,0,0,0,0,0
	C133.3,15.5,137.4,19.6,137.4,24.6"/>
<path class="st0" d="M159.3,24.7c0,4.4-3.6,8-8,8s-8-3.6-8-8s3.6-8,8-8S159.3,20.3,159.3,24.7"/>
<path class="st0" d="M167.5,19.5c-2.8,2.3-3.3,6.5-1,9.3c0.3,0.4,0.6,0.7,1,1C168.2,26.4,168.2,22.9,167.5,19.5"/>
<path class="st0" d="M178.6,24.6c0-3.4-2.5-6.2-5.9-6.6c1,4.4,1,8.9,0,13.3C176.1,30.9,178.6,28,178.6,24.6"/>
<path class="st0" d="M138.9,10.1L138.9,10.1c3.4-4.5,8.7-7.9,13.5-7.9c9.2,0,16.6,10.7,16.6,22.5s-7.4,22-16.6,22.3
	c-4.9,0-9.6-2-12.9-5.6c3.8,4.5,7.4,7.4,12.8,7.9c11,1,20.1-11,20.1-24.6s-9.1-25.6-20.1-24.6C146.4,0.6,142,4.1,138.9,10.1"/>
<path class="st0" d="M24.2,16.9h-3l-8.8,12.8L3.5,16.9H0l10.7,15.4H14l10.7-15.4H24.2z"/>
<polygon class="st0" points="30.4,16.9 27.6,16.9 27.6,32.4 30.7,32.4 30.7,16.9 "/>
<path class="st0" d="M43.2,16.8c-5,0-8,0.7-8,4.4c0,4.2,2.7,4.6,10.4,4.6h4.8c3.2,0,3.8,0.5,3.8,2c0,1.7-0.6,2.4-4.4,2.4H42
	c-3.2,0-3.8-0.7-3.8-1.9v-1.3h-2.9v1.4c0,3.6,3.6,4,7.2,4h7c3.9,0,7.7-0.3,7.7-4.2v-1c0-2.7-2.2-3.9-7.2-3.9h-7.5
	c-3.9,0-4.3-0.6-4.3-2.1c0-2.1,1.2-2.3,6.3-2.3h2.7c6.6,0,6.6,0.4,6.6,2.5v0.3h2.9v-0.8c0-3.1-2.1-4.2-8.1-4.2L43.2,16.8z"/>
<path class="st0" d="M83.7,16.9h-2.8v11.4c0,1.1-0.3,2-3.7,2h-8.7c-3.4,0-3.7-0.9-3.7-2V16.9h-3.1v11.4c0,3.5,2.5,4.2,6.9,4.2h8.6
	c4.4,0,6.9-0.7,6.9-4.2V16.9H83.7z"/>
<path class="st0" d="M96.4,16.8c-5,0-8,0.7-8,4.4c0,4.2,2.7,4.6,10.4,4.6h4.8c3.2,0,3.8,0.5,3.8,2c0,1.7-0.6,2.4-4.4,2.4h-7.8
	c-3.2,0-3.8-0.7-3.8-1.9v-1.3h-3v1.4c0,3.6,3.6,4,7.2,4h7c3.9,0,7.7-0.3,7.7-4.2v-1c0-2.7-2.2-3.9-7.2-3.9h-7.4
	c-3.9,0-4.3-0.6-4.3-2.1c0-2.1,1.3-2.3,6.3-2.3h2.7c6.6,0,6.6,0.4,6.6,2.5v0.3h2.9v-0.8c0-3.1-2.1-4.2-8.1-4.2L96.4,16.8z"/>
</svg>
